# File created by Blade
# Date/Time:  Wed Sep 24 20:26:02 2014
# Frame Rate: 120.000 fps
#------------------------------------------------------
:FULLY-SPECIFIED
:DEGREES
1027
root -4.735873 33.608754 -7.348953 271.021773 -78.077173 -260.970915
Spine -7.841535 14.471185 1.780599
Head 0.259546 64.459437 1.299962
LeftShoulder -17.846572 21.217885 3.288270
LeftArm 21.080012 8.497716 -66.047080
LeftForeArm 8.172362 0.000000 19.300100
LeftHand -27.416602 0.000000 7.904733
LeftHandThumb1 -26.253704 0.000000 33.147579
RightShoulder -17.678753 9.170113 -30.512168
RightArm -22.533248 -18.807268 81.379866
RightForeArm -26.081183 -0.000000 17.625473
RightHand -6.596225 -0.000000 13.825678
RightHandThumb1 -24.326973 -0.000000 -32.862282
LeftUpLeg -12.261940 4.688503 -4.659231
LeftLeg 0.458572 -0.000000 -0.000000
LeftFoot -0.484079 10.561003 -16.277217
LeftToeBase -7.420157 -0.000000 0.000000
RightUpLeg -2.813842 -15.521560 -8.914978
RightLeg -1.124487 -0.000000 0.000000
RightFoot -11.663646 11.448890 9.900037
RightToeBase -4.457970 -0.000000 0.000000
1028
root -4.722126 33.602746 -7.361059 271.935219 -78.191135 -261.999228
Spine -7.765656 14.393692 1.891458
Head -0.010075 64.567846 1.019126
LeftShoulder -17.790124 21.167123 3.200012
LeftArm 20.864902 8.928647 -66.515730
LeftForeArm 8.240782 -0.000000 19.145806
LeftHand -27.233064 -0.000000 7.470277
LeftHandThumb1 -26.253704 0.000000 33.147579
RightShoulder -17.684004 9.149010 -30.467897
RightArm -22.638946 -18.908778 81.850669
RightForeArm -25.968802 -0.000000 17.577200
RightHand -6.547266 0.000000 13.882549
RightHandThumb1 -24.326973 -0.000000 -32.862282
LeftUpLeg -12.247581 4.836275 -4.488569
LeftLeg 0.434945 -0.000000 -0.000000
LeftFoot -0.379443 10.666336 -16.530967
LeftToeBase -7.781622 -0.000000 0.000000
RightUpLeg -2.682181 -15.580259 -8.803017
RightLeg -1.140342 -0.000000 0.000000
RightFoot -11.661517 11.261926 9.531440
RightToeBase -4.477810 -0.000000 0.000000
1029
root -4.701486 33.597246 -7.368269 272.729369 -78.260871 -262.870426
Spine -7.723731 14.379923 1.933223
Head -0.263951 64.613793 0.779371
LeftShoulder -17.754352 21.173716 3.115569
LeftArm 20.809769 9.430474 -66.913163
LeftForeArm 8.265779 -0.000000 18.854541
LeftHand -27.113364 -0.000000 7.111183
LeftHandThumb1 -26.253704 0.000000 33.147579
RightShoulder -17.702290 9.144841 -30.431158
RightArm -22.754748 -18.862094 82.271670
RightForeArm -26.026389 -0.000000 17.525022
RightHand -6.425289 -0.000000 13.933692
RightHandThumb1 -24.326973 -0.000000 -32.862282
LeftUpLeg -12.298102 5.059865 -4.393392
LeftLeg 0.482450 -0.000000 -0.000000
LeftFoot -0.310250 10.887377 -16.285264
LeftToeBase -7.854012 -0.000000 0.000000
RightUpLeg -2.638542 -15.545976 -8.732584
RightLeg -1.087667 -0.000000 0.000000
RightFoot -11.801115 11.016888 9.196517
RightToeBase -3.917439 -0.000000 0.000000
1030
root -4.683160 33.591495 -7.378228 273.691650 -78.355429 -263.911551
Spine -7.699173 14.353245 1.986808
Head -0.550897 64.560387 0.528501
LeftShoulder -17.725724 21.204964 3.008528
LeftArm 20.780221 9.879046 -67.290101
LeftForeArm 8.269803 0.000000 18.570933
LeftHand -27.130563 -0.000000 6.752710
LeftHandThumb1 -26.253704 0.000000 33.147579
RightShoulder -17.763672 9.080905 -30.370397
RightArm -22.795567 -18.950469 82.674556
RightForeArm -25.920183 -0.000000 17.458330
RightHand -6.390063 0.000000 14.065402
RightHandThumb1 -24.326973 -0.000000 -32.862282
LeftUpLeg -12.343859 5.303159 -4.272413
LeftLeg 0.521986 -0.000000 -0.000000
LeftFoot -0.159227 10.904575 -16.579016
LeftToeBase -8.210633 -0.000000 0.000000
RightUpLeg -2.588052 -15.547569 -8.640646
RightLeg -1.021596 -0.000000 0.000000
RightFoot -11.837466 10.886216 9.044000
RightToeBase -3.894480 -0.000000 0.000000
1031
root -4.668616 33.585601 -7.386810 274.637780 -78.435535 -264.956941
Spine -7.663854 14.328302 2.019956
Head -0.773970 64.500221 0.376731
LeftShoulder -17.652440 21.195054 2.951644
LeftArm 20.626197 10.289088 -67.698576
LeftForeArm 8.162568 -0.000000 18.374348
LeftHand -27.281229 -0.000000 6.675373
LeftHandThumb1 -26.253704 0.000000 33.147579
RightShoulder -17.812757 9.027377 -30.293927
RightArm -22.888106 -19.118322 83.083930
RightForeArm -25.828558 -0.000000 17.457271
RightHand -6.442900 -0.000000 14.143904
RightHandThumb1 -24.326973 -0.000000 -32.862282
LeftUpLeg -12.334412 5.528733 -4.176932
LeftLeg 0.527298 -0.000000 -0.000000
LeftFoot -0.087782 11.005842 -16.646374
LeftToeBase -8.202979 -0.000000 0.000000
RightUpLeg -2.511895 -15.537087 -8.575008
RightLeg -0.956901 -0.000000 0.000000
RightFoot -11.844553 10.776444 8.996015
RightToeBase -3.993203 -0.000000 0.000000
1032
root -4.653019 33.580243 -7.397258 275.695796 -78.527650 -266.085211
Spine -7.665173 14.277422 2.051883
Head -0.964879 64.437938 0.276756
LeftShoulder -17.624002 21.166302 2.888068
LeftArm 20.464880 10.678423 -68.077393
LeftForeArm 8.132972 -0.000000 18.150498
LeftHand -27.317916 -0.000000 6.018231
LeftHandThumb1 -26.253704 0.000000 33.147579
RightShoulder -17.877811 8.993148 -30.199282
RightArm -22.894255 -19.162425 83.397992
RightForeArm -25.883137 -0.000000 17.318608
RightHand -6.259753 0.000000 14.265070
RightHandThumb1 -24.326973 -0.000000 -32.862282
LeftUpLeg -12.368289 5.776075 -4.080438
LeftLeg 0.579017 -0.000000 -0.000000
LeftFoot -0.031534 11.121965 -16.483545
LeftToeBase -8.045940 -0.000000 0.000000
RightUpLeg -2.491790 -15.479603 -8.482046
RightLeg -0.827541 -0.000000 0.000000
RightFoot -11.946431 10.604995 8.912321
RightToeBase -3.881073 -0.000000 0.000000
